<svg version="1.1" id="Layer_1" xmlns:x="ns_extend;" xmlns:i="ns_ai;" xmlns:graph="ns_graphs;" xmlns="http://www.w3.org/2000/svg" xmlns:xlink="http://www.w3.org/1999/xlink" x="0px" y="0px" viewBox="0 0 61.3 55.7" style="enable-background:new 0 0 61.3 55.7;" xml:space="preserve">
 <style type="text/css">
  .st0{fill:#FF5F3B;}
 </style>
 <metadata>
  <sfw xmlns="ns_sfw;">
   <slices>
   </slices>
   <sliceSourceBounds bottomLeftOrigin="true" height="55.7" width="61.3" x="-118.9" y="-142.9">
   </sliceSourceBounds>
  </sfw>
 </metadata>
 <g id="Yugabyte-Logo-Dark_BG-RGB_00000167373402416010803990000005445657258390182841_">
  <g id="Yugabyte-Logomark-Dark_BG-RGB">
   <path class="st0" d="M16.4,0c1.4,0,2.1,0,2.6,0.3c0.5,0.2,0.8,0.6,1.1,1.1c0.3,0.5,0.3,1.2,0.3,2.6v17.6c0,2.1,0,3.1-0.4,3.8
			c-0.4,0.6-1,0.9-1.6,1.1c-0.8,0.1-1.7-0.3-3.6-1.2l-4.9-2.3c-3.6-1.7-5.3-2.5-6.6-3.8c-1.2-1.1-2-2.5-2.6-4C0,13.4,0,11.4,0,7.5V4
			c0-1.4,0-2.1,0.3-2.6c0.2-0.5,0.6-0.8,1.1-1.1C1.9,0,2.6,0,4,0H16.4z">
   </path>
   <path class="st0" d="M57.3,0c1.4,0,2.1,0,2.6,0.3c0.5,0.2,0.8,0.6,1.1,1.1c0.3,0.5,0.3,1.2,0.3,2.6v3.5c0,3.9,0,5.9-0.6,7.6
			c-0.5,1.5-1.4,2.9-2.6,4c-1.3,1.3-3.1,2.1-6.6,3.8l-10.6,4.9V4c0-1.4,0-2.1,0.3-2.6c0.2-0.5,0.6-0.8,1.1-1.1C42.8,0,43.5,0,44.9,0
			H57.3z">
   </path>
   <path class="st0" d="M40.9,27.9v23.9c0,1.4,0,2.1-0.3,2.6c-0.2,0.5-0.6,0.8-1.1,1.1c-0.5,0.3-1.2,0.3-2.6,0.3H24.4
			c-1.4,0-2.1,0-2.6-0.3c-0.5-0.2-0.8-0.6-1.1-1.1c-0.3-0.5-0.3-1.2-0.3-2.6v-3.5c0-3.9,0-5.9,0.6-7.6c0.5-1.5,1.4-2.9,2.6-4
			c1.3-1.3,3.1-2.1,6.6-3.8L40.9,27.9z">
   </path>
  </g>
 </g>
</svg>